<svg width="40" height="40" viewBox="0 0 40 40" fill="none" xmlns="http://www.w3.org/2000/svg">
<path d="M40 18.596C40 37.4186 29.3675 37.4186 18.9189 37.4186C8.47029 37.4186 0 28.9914 0 18.596C0 8.20053 8.47029 3 18.9189 3C29.3675 3 40 8.20053 40 18.596Z" fill="#F1EEF4"/>
<path d="M20 20.1016V29.7466" stroke="#4E008E" stroke-width="1.5" stroke-linecap="round" stroke-linejoin="round"/>
<path d="M11.0664 15.2109L20.0008 20.1009L28.9352 15.2109" stroke="#4E008E" stroke-width="1.5" stroke-linecap="round" stroke-linejoin="round"/>
<path d="M28.61 25.1415L20.36 29.6584C20.2496 29.7188 20.1258 29.7504 20 29.7504C19.8742 29.7504 19.7504 29.7188 19.64 29.6584L11.39 25.1415C11.2722 25.077 11.1739 24.9821 11.1053 24.8667C11.0367 24.7513 11.0003 24.6195 11 24.4853V15.5171C11.0003 15.3828 11.0367 15.2511 11.1053 15.1357C11.1739 15.0202 11.2722 14.9253 11.39 14.8609L19.64 10.344C19.7504 10.2836 19.8742 10.252 20 10.252C20.1258 10.252 20.2496 10.2836 20.36 10.344L28.61 14.8609C28.7278 14.9253 28.8261 15.0202 28.8947 15.1357C28.9633 15.2511 28.9997 15.3828 29 15.5171V24.4834C29 24.618 28.9638 24.7501 28.8952 24.8659C28.8266 24.9817 28.7281 25.0769 28.61 25.1415Z" stroke="#4E008E" stroke-width="1.5" stroke-linecap="round" stroke-linejoin="round"/>
<path d="M15.6465 12.5293L24.5002 17.3752V22.2502" stroke="#FBB041" stroke-width="1.5" stroke-linecap="round" stroke-linejoin="round"/>
</svg>
