<svg width="40" height="40" viewBox="0 0 40 40" fill="none" xmlns="http://www.w3.org/2000/svg">
<path d="M40 18.596C40 37.4186 29.3675 37.4186 18.9189 37.4186C8.47029 37.4186 0 28.9914 0 18.596C0 8.20053 8.47029 3 18.9189 3C29.3675 3 40 8.20053 40 18.596Z" fill="#FCFCFC"/>
<path d="M23 9.5L21.5 17L27.5 19.25L17 30.5L18.5 23L12.5 20.75L23 9.5Z" fill="#FBB041"/>
<path fill-rule="evenodd" clip-rule="evenodd" d="M23.3425 8.83277C23.6408 8.98586 23.8012 9.31834 23.7354 9.64711L22.3605 16.5217L27.7634 18.5478C27.9978 18.6357 28.1729 18.8349 28.2302 19.0786C28.2874 19.3224 28.2192 19.5787 28.0483 19.7618L17.5483 31.0118C17.3195 31.2569 16.9559 31.3204 16.6576 31.1673C16.3593 31.0142 16.1988 30.6817 16.2646 30.3529L17.6395 23.4783L12.2367 21.4523C12.0022 21.3643 11.8271 21.1652 11.7699 20.9214C11.7126 20.6776 11.7809 20.4214 11.9517 20.2383L22.4517 8.98829C22.6805 8.74318 23.0442 8.67968 23.3425 8.83277ZM13.8137 20.4417L18.7634 22.2978C19.1076 22.4269 19.3076 22.7866 19.2354 23.1471L18.2533 28.0581L26.1863 19.5584L21.2367 17.7023C20.8924 17.5732 20.6925 17.2135 20.7646 16.8529L21.7468 11.942L13.8137 20.4417Z" fill="#FBB041"/>
</svg>
